<?xml version="1.0" encoding="utf-8"?>
<svg fill="none" xmlns="http://www.w3.org/2000/svg" width="36" height="36" viewBox="0 -12 207 196"><path fill-rule="evenodd" clip-rule="evenodd" d="M96.796 29.626c-8.62 8.61-18.24 18.25-26.87 26.86l-26.85-26.86c8.62-8.61 18.24-18.24 26.85-26.86a9.51 9.51 0 0113.41 0l13.46 13.47a9.5 9.5 0 010 13.39z" fill="black"></path><path fill-rule="evenodd" clip-rule="evenodd" d="M76.636 49.826l20.16 20.16a9.52 9.52 0 010 13.41l-26.92 26.9-26.85-26.85 33.61-33.62z" fill="black"></path><path fill-rule="evenodd" clip-rule="evenodd" d="M49.766 76.686c6.733 6.72 13.453 13.44 20.16 20.16a9.48 9.48 0 010 13.4 4274.605 4274.605 0 01-13.45 13.45 9.479 9.479 0 01-13.4 0l-40.31-40.3a9.51 9.51 0 010-13.41l40.31-40.36a9.51 9.51 0 0113.4 0l13.45 13.46a9.48 9.48 0 010 13.4 4806.895 4806.895 0 01-20.16 20.2z" fill="black"></path><path fill-rule="evenodd" clip-rule="evenodd" d="M110.196 123.696l26.85-26.85 26.86 26.85c-8.61 8.63-18.24 18.25-26.86 26.87a9.499 9.499 0 01-13.39 0l-13.46-13.46a9.491 9.491 0 010-13.41z" fill="black"></path><path fill-rule="evenodd" clip-rule="evenodd" d="M130.356 103.556l-20.16-20.16a9.492 9.492 0 010-13.41l26.85-26.86 26.86 26.86-33.55 33.57z" fill="black"></path><path fill-rule="evenodd" clip-rule="evenodd" d="M157.206 76.686l-20.16-20.16a9.491 9.491 0 010-13.4l13.46-13.5a9.51 9.51 0 0113.4 0l40.32 40.32a9.508 9.508 0 010 13.41c-13.44 13.427-26.88 26.86-40.32 40.3a9.479 9.479 0 01-13.4 0l-13.46-13.45a9.491 9.491 0 010-13.4l20.16-20.16v.04z" fill="black"></path></svg>